<?xml version="1.0" encoding="UTF-8"?>
<svg width="15px" height="15px" viewBox="0 0 15 15" version="1.1" xmlns="http://www.w3.org/2000/svg" xmlns:xlink="http://www.w3.org/1999/xlink">
    <title>3A77B6FC-9699-41F1-9449-0DDA27B44DCC</title>
    <g id="Page-1" stroke="none" stroke-width="1" fill="none" fill-rule="evenodd">
        <g id="airport" transform="translate(-218.000000, -336.000000)" fill="#286BF9" fill-rule="nonzero">
            <g id="thumb" transform="translate(30.000000, 236.000000)">
                <g id="Group-20" transform="translate(188.000000, 99.000000)">
                    <path d="M3.01666667,7.49166667 C4.21666667,9.85 6.15,11.775 8.50833333,12.9833333 L10.3416667,11.15 C10.5666667,10.925 10.9,10.85 11.1916667,10.95 C12.125,11.2583333 13.1333333,11.425 14.1666667,11.425 C14.625,11.425 15,11.8 15,12.2583333 L15,15.1666667 C15,15.625 14.625,16 14.1666667,16 C6.34166667,16 0,9.65833333 0,1.83333333 C0,1.375 0.375,1 0.833333333,1 L3.75,1 C4.20833333,1 4.58333333,1.375 4.58333333,1.83333333 C4.58333333,2.875 4.75,3.875 5.05833333,4.80833333 C5.15,5.1 5.08333333,5.425 4.85,5.65833333 L3.01666667,7.49166667 Z" id="call"></path>
                </g>
            </g>
        </g>
    </g>
</svg>