<?xml version="1.0" encoding="UTF-8"?>
<svg width="18px" height="18px" viewBox="0 0 18 18" version="1.1" xmlns="http://www.w3.org/2000/svg" xmlns:xlink="http://www.w3.org/1999/xlink">
    <title>B88F33EE-7A97-4B86-9EB5-90BCAB99B51D</title>
    <g id="Page-1" stroke="none" stroke-width="1" fill="none" fill-rule="evenodd">
        <g id="airport" transform="translate(-40.000000, -2024.000000)" fill="#FFFFFF" fill-rule="nonzero">
            <g id="Group-22" transform="translate(20.000000, 2009.000000)">
                <g id="Group-4" transform="translate(20.000000, 14.000000)">
                    <g id="direction-right" transform="translate(0.000000, 1.000000)">
                        <path d="M0.263361366,9.63590618 L8.34380274,17.7361777 C8.6939132,18.0871894 9.2663303,18.0880895 9.61644076,17.7379777 L17.7355833,9.63770624 C17.9048634,9.46885291 18,9.23958197 18,9.00048489 C18,8.7613878 17.9048634,8.53211686 17.7355833,8.36326353 L9.61644076,0.262992031 C9.44753918,0.094279986 9.21847675,-0.000335868345 8.9797485,8.95906851e-07 C8.74102025,0.000339461553 8.51222639,0.0956029226 8.34380274,0.264792091 L0.263361366,8.36506359 C0.0947418277,8.53353686 0,8.76212382 0,9.00048489 C0,9.23884595 0.0947418277,9.46743292 0.263361366,9.63590618 M6.29984169,7.20042455 L10.7999761,7.20042455 L10.7999761,5.40036422 L13.5000568,8.10045472 L10.7999761,10.8005452 L10.7999761,9.00048489 L8.09989546,9.00048489 L8.09989546,12.6006056 L6.29984169,12.6006056 L6.29984169,7.20042455 Z" id="direction"></path>
                    </g>
                </g>
            </g>
        </g>
    </g>
</svg>